# xmcd
#
# Track frame offsets:
#	150
#	24733
#	40362
#	67498
#	90036
#	101553
#	114273
#	132076
#	147009
#	178183
#	198046
#
# Disc length: 2877 seconds
#
# Revision: 1
# Processed by: cddbd v1.4PL0 Copyright (c) Steve Scherf et al.
# Submitted via: audiograbber 1.80
#
DISCID=910b3b0b
DTITLE=Various Artist - Ten Man Acoustic Jam
DYEAR=1900
DGENRE=
TTITLE0=Jack Ingram - Barbi Doll
TTITLE1=Radney Foster - Just Call Me Lonesome
TTITLE2=Gary Allan - What Would Willie Do
TTITLE3=Rodney Crowell - Telephone Road
TTITLE4=Robert Earl Keen - The Buckin' Song
TTITLE5=Jack Ingram - Work This Out
TTITLE6=Radney Foster - Texas in 1880
TTITLE7=Gary Allan - Alright Guy
TTITLE8=Rodney Crowell - Like a Rolling Stone
TTITLE9=Robert Earl Keen - The Road Goes on Forever
TTITLE10=Finale - Sitting on Top of the World
EXTD=
EXTT0=
EXTT1=
EXTT2=
EXTT3=
EXTT4=
EXTT5=
EXTT6=
EXTT7=
EXTT8=
EXTT9=
EXTT10=
PLAYORDER=
